# xmcd CD database file
#
# Track frame offsets:
#	150
#	16404
#	28788
#	43230
#	55852
#	74138
#	86098
#	96367
#	112079
#	124479
#	144418
#	169562
#	182236
#	198096
#
# Disc length: 2881 seconds
#
# Revision: 0
# Processed by: cddbd v1.5.2PL0 Copyright (c) Steve Scherf et al.
# Submitted via: CDex 1.51
#
DISCID=d10b3f0e
DTITLE=Nora Sarmoria - Fenix Spiral
DYEAR=1900
DGENRE=Jazz
TTITLE0=malisimo
TTITLE1=Jelena
TTITLE2=tus rulos
TTITLE3=hojata de la coca
TTITLE4=enamorada del muro
TTITLE5=milonga cromada
TTITLE6=milonguiana
TTITLE7=timo misteriosa
TTITLE8=barcos en nubes
TTITLE9=fenix @spiral
TTITLE10=bolivian buey
TTITLE11=merval
TTITLE12=hermes trismegisto
TTITLE13=zamba de la sirena
EXTD=
EXTT0=
EXTT1=
EXTT2=
EXTT3=
EXTT4=
EXTT5=
EXTT6=
EXTT7=
EXTT8=
EXTT9=
EXTT10=
EXTT11=
EXTT12=
EXTT13=
PLAYORDER=
